# couleurs
mtllib cube-color.mtl

g mon_cube
usemtl diamant_reflet
# sommets
v 0.0 0.0 0.0
v 0.0 0.0 80.0
v 0.0 80.0 0.0
v 0.0 80.0 80.0
v 80.0 0.0 0.0
v 80.0 0.0 80.0
v 80.0 80.0 0.0
v 80.0 80.0 80.0

# vecteurs normaux, perpendiculaires aux faces
vn 0.0 0.0 80.0
vn 0.0 0.0 -80.0
vn 0.0 80.0 0.0
vn 0.0 -80.0 0.0
vn 80.0 0.0 0.0
vn -80.0 0.0 0.0

# faces. v/(vt)/vn
f 2//1 6//1 8//1 4//1
f 1//2 3//2 7//2 5//2
f 3//3 4//3 8//3 7//3
f 1//4 5//4 6//4 2//4
f 5//5 7//5 8//5 6//5
f 1//6 2//6 4//6 3//6

# f 1//2 7//2 5//2
# f 1//2 3//2 7//2
# f 1//6 4//6 3//6
# f 1//6 2//6 4//6
# f 3//3 8//3 7//3
# f 3//3 4//3 8//3
# f 5//5 7//5 8//5
# f 5//5 8//5 6//5
# f 1//4 5//4 6//4
# f 1//4 6//4 2//4
# f 2//1 6//1 8//1
# f 2//1 8//1 4//1
